<?xml version="1.0" standalone="no"?>
<!DOCTYPE svg PUBLIC "-//W3C//DTD SVG 20010904//EN"
 "http://www.w3.org/TR/2001/REC-SVG-20010904/DTD/svg10.dtd">
<svg version="1.0" xmlns="http://www.w3.org/2000/svg"
 width="1032.000000pt" height="1032.000000pt" viewBox="0 0 1032.000000 1032.000000"
 preserveAspectRatio="xMidYMid meet">
<metadata>
Created by potrace 1.14, written by Peter Selinger 2001-2017
</metadata>
<g transform="translate(0.000000,1032.000000) scale(0.100000,-0.100000)"
fill="#000000" stroke="none">
<path d="M4888 10315 c-1 -2 -52 -6 -111 -10 -59 -3 -116 -8 -125 -10 -9 -1
-46 -6 -82 -9 -36 -4 -75 -8 -85 -10 -27 -5 -113 -17 -153 -21 -18 -2 -36 -6
-40 -9 -4 -2 -28 -7 -52 -11 -25 -4 -49 -8 -55 -9 -5 -2 -32 -6 -60 -11 -27
-4 -54 -10 -60 -14 -5 -3 -18 -6 -27 -7 -10 -1 -19 -2 -20 -3 -2 -2 -12 -4
-23 -6 -33 -7 -215 -55 -285 -75 -36 -11 -69 -20 -75 -21 -5 0 -14 -4 -20 -9
-5 -4 -27 -11 -47 -15 -21 -4 -38 -12 -38 -18 0 -6 -3 -8 -6 -5 -5 5 -122 -33
-189 -61 -11 -5 -72 -30 -135 -56 -63 -27 -170 -75 -237 -107 -68 -32 -126
-58 -129 -57 -4 0 -10 -3 -13 -8 -3 -4 -31 -21 -61 -37 -68 -37 -116 -63 -155
-87 -16 -10 -48 -28 -70 -40 -22 -12 -72 -44 -112 -70 -40 -27 -76 -49 -82
-49 -5 0 -11 -4 -13 -9 -3 -7 -20 -19 -106 -76 -9 -5 -25 -18 -36 -27 -12 -9
-44 -34 -73 -55 -28 -21 -64 -47 -78 -57 -14 -11 -36 -28 -48 -38 -12 -10 -26
-21 -32 -25 -43 -34 -124 -102 -146 -123 -14 -14 -51 -46 -80 -72 -228 -197
-560 -569 -754 -843 -27 -38 -53 -71 -57 -73 -5 -2 -8 -7 -8 -12 0 -4 -30 -51
-66 -105 -36 -53 -64 -97 -63 -98 2 -1 18 -12 36 -25 18 -12 34 -22 37 -22 2
0 61 -36 130 -80 70 -44 130 -80 135 -80 4 0 16 -9 26 -20 10 -11 21 -20 25
-20 4 0 42 -21 84 -47 42 -27 84 -53 94 -58 9 -6 36 -23 60 -38 108 -69 127
-81 132 -82 3 0 44 -26 92 -58 48 -31 90 -57 93 -57 3 0 39 -22 81 -50 41 -27
77 -50 79 -50 3 0 136 -83 265 -165 19 -12 67 -41 105 -65 39 -24 93 -58 122
-77 28 -18 56 -33 62 -33 6 0 11 -4 11 -8 0 -5 12 -15 28 -22 15 -8 38 -22 52
-31 41 -27 70 -33 70 -15 0 9 5 16 11 16 5 0 7 5 4 10 -3 6 1 13 9 16 9 3 16
11 16 16 0 10 136 201 163 230 7 7 34 40 62 73 86 104 197 218 296 306 39 35
77 69 83 75 6 6 45 36 86 67 41 31 81 62 89 69 33 28 141 98 151 98 5 0 10 4
10 9 0 5 8 11 18 15 18 6 54 27 62 37 11 12 260 139 260 132 0 -5 4 -3 8 3 10
15 206 94 332 133 58 19 112 36 120 39 20 7 29 9 69 17 19 3 37 8 41 10 4 3
22 7 41 10 19 2 54 9 79 15 25 6 59 12 75 14 17 2 48 7 71 10 76 12 129 17
222 21 52 2 95 5 97 7 7 7 288 -5 390 -17 139 -15 180 -21 180 -26 0 -1 14 -3
30 -4 17 -1 39 -4 50 -8 11 -3 31 -8 45 -11 41 -8 63 -13 110 -26 25 -7 54
-14 65 -16 28 -5 147 -43 167 -55 10 -5 24 -9 31 -9 8 0 27 -6 43 -14 33 -17
84 -38 99 -41 6 -2 40 -17 78 -34 37 -17 68 -30 70 -28 1 1 16 -7 32 -18 17
-11 53 -31 80 -45 28 -14 52 -27 55 -30 3 -3 16 -11 30 -18 31 -15 38 -20 170
-107 58 -38 116 -80 130 -92 14 -13 28 -23 32 -23 3 0 13 -6 20 -13 7 -6 29
-25 48 -41 118 -97 280 -252 369 -355 25 -30 53 -61 61 -70 8 -9 37 -45 65
-81 27 -36 52 -67 55 -70 3 -3 34 -48 69 -100 88 -131 83 -127 119 -101 17 11
35 21 41 21 6 0 11 3 11 8 0 4 17 16 38 27 20 11 39 22 42 25 4 4 161 102 218
135 84 49 148 90 150 97 2 4 8 8 14 8 6 0 37 18 70 40 33 22 64 40 68 40 5 0
15 6 22 13 16 14 40 30 83 53 17 9 54 32 83 50 28 19 55 33 58 33 4 0 10 3 13
8 3 5 28 22 56 38 27 16 54 32 60 37 19 17 237 148 245 148 5 0 10 3 12 8 2 4
32 25 68 46 36 21 88 54 117 72 28 19 54 34 58 34 3 0 11 5 18 10 29 24 103
70 115 70 6 0 12 5 12 10 0 6 4 10 9 10 5 0 28 12 50 27 41 26 41 27 24 52 -9
14 -31 49 -47 76 -17 28 -33 52 -37 55 -3 3 -30 41 -60 85 -30 44 -59 87 -66
95 -6 8 -41 53 -77 100 -36 47 -69 90 -73 95 -22 28 -183 216 -218 254 -65 71
-287 292 -341 341 -100 89 -176 155 -196 168 -11 8 -38 32 -61 53 -23 21 -47
39 -54 39 -6 0 -13 4 -15 8 -14 37 -545 389 -666 443 -18 8 -32 16 -32 19 0 3
-25 17 -55 30 -30 13 -55 28 -55 32 0 4 -4 8 -10 8 -5 0 -56 23 -112 50 -56
28 -108 50 -115 50 -7 0 -13 5 -13 10 0 6 -3 9 -7 8 -8 -1 -18 2 -134 52 -39
16 -77 30 -85 30 -8 0 -14 5 -14 11 0 6 -7 9 -15 5 -8 -3 -15 -1 -15 4 0 6 -3
9 -7 8 -7 -2 -80 22 -128 43 -25 10 -261 83 -340 105 -56 15 -104 26 -165 40
-14 3 -50 11 -80 19 -50 12 -101 22 -155 31 -29 5 -77 14 -100 19 -11 2 -47 7
-79 11 -33 3 -69 8 -80 10 -23 5 -73 11 -156 19 -30 3 -75 8 -100 10 -53 6
-667 15 -672 10z"/>
<path d="M2745 3379 c-22 -16 -58 -42 -80 -57 -22 -15 -42 -29 -45 -32 -3 -3
-27 -21 -53 -40 -26 -19 -79 -59 -118 -87 -38 -29 -73 -53 -78 -53 -5 0 -11
-3 -13 -7 -5 -13 -127 -103 -138 -103 -6 0 -10 -4 -10 -10 0 -5 -6 -10 -14
-10 -8 0 -16 -3 -18 -8 -5 -12 -127 -102 -138 -102 -6 0 -10 -3 -10 -7 0 -5
-16 -19 -35 -32 -19 -13 -44 -32 -56 -42 -12 -11 -25 -19 -29 -19 -4 0 -16 -8
-28 -17 -32 -28 -57 -47 -75 -58 -16 -10 -314 -227 -332 -242 -5 -5 -64 -47
-130 -95 -66 -48 -129 -94 -140 -102 -11 -9 -47 -35 -80 -59 -63 -44 -68 -52
-48 -77 7 -8 66 -82 131 -165 155 -195 201 -245 412 -455 176 -174 241 -234
355 -326 33 -27 65 -53 71 -59 6 -5 23 -19 39 -30 15 -11 38 -30 51 -43 13
-12 25 -21 26 -20 4 4 82 -55 86 -64 2 -5 8 -8 13 -8 6 0 27 -13 47 -29 55
-44 335 -221 350 -221 6 0 12 -4 12 -9 0 -5 9 -12 19 -16 11 -3 36 -17 55 -30
20 -13 36 -22 36 -18 0 3 6 0 13 -6 27 -22 350 -180 359 -175 4 3 8 0 8 -5 0
-6 4 -11 10 -11 5 0 34 -11 64 -25 30 -14 60 -25 65 -25 6 0 11 -4 11 -8 0 -5
6 -9 13 -9 6 0 73 -22 147 -50 199 -74 449 -150 605 -184 33 -7 62 -13 65 -14
9 -3 74 -15 100 -19 14 -3 25 -5 25 -6 0 -1 9 -3 20 -5 11 -1 36 -5 55 -9 68
-13 146 -25 195 -31 28 -3 68 -8 90 -11 272 -36 753 -40 1090 -8 75 7 130 13
155 18 14 2 48 7 75 11 28 3 59 8 70 10 19 5 39 8 115 21 46 8 65 12 65 14 0
1 11 3 25 5 21 3 101 20 185 40 11 3 61 16 110 30 50 14 97 27 105 29 8 1 22
5 30 8 23 9 142 48 164 53 33 8 240 86 269 101 15 8 35 17 45 19 9 2 44 16 77
31 33 15 63 27 68 26 4 -1 7 3 7 10 0 6 3 9 6 5 4 -3 27 5 53 18 25 14 51 25
58 25 6 0 13 3 15 8 2 4 41 26 88 49 47 23 117 60 155 82 39 22 89 50 113 62
23 12 42 27 42 32 0 6 3 8 6 5 10 -10 343 216 509 344 263 204 602 531 796
768 19 23 43 52 54 64 11 12 31 37 45 56 14 18 30 38 35 44 6 6 28 36 50 66
22 30 44 58 50 62 6 5 6 8 0 8 -9 0 -46 27 -87 64 -10 9 -21 16 -25 16 -5 0
-23 14 -42 30 -18 17 -37 30 -42 30 -4 0 -14 6 -21 13 -7 8 -47 38 -88 67 -41
29 -77 56 -80 59 -3 4 -18 15 -35 25 -16 11 -34 23 -40 28 -5 5 -48 36 -95 70
-47 34 -86 66 -88 70 -2 4 -10 8 -18 8 -8 0 -14 5 -14 10 0 6 -6 10 -14 10 -8
0 -16 3 -18 8 -3 7 -60 51 -116 89 -18 13 -38 27 -45 33 -37 31 -149 110 -157
110 -4 0 -10 3 -12 8 -3 8 -115 92 -303 227 -60 44 -114 83 -120 88 -5 4 -68
50 -139 101 l-129 93 -99 -123 c-128 -160 -335 -369 -474 -479 -20 -16 -43
-36 -51 -43 -7 -7 -13 -11 -13 -8 0 3 -8 -2 -18 -11 -11 -10 -31 -26 -45 -36
-118 -84 -153 -107 -164 -107 -7 0 -13 -4 -13 -8 0 -5 -17 -17 -37 -28 -21
-10 -40 -22 -43 -25 -3 -3 -43 -26 -90 -50 -47 -24 -86 -47 -88 -51 -2 -5 -8
-8 -13 -8 -6 0 -40 -14 -77 -31 -37 -16 -76 -34 -87 -38 -67 -28 -86 -35 -145
-56 -53 -19 -199 -65 -220 -70 -45 -9 -118 -28 -130 -32 -8 -4 -19 -5 -23 -4
-5 1 -25 -3 -45 -8 -40 -11 -108 -22 -157 -27 -16 -1 -30 -3 -30 -4 0 -2 -44
-6 -155 -15 -47 -3 -141 -6 -210 -6 -112 1 -165 4 -305 16 -105 10 -156 19
-325 55 -25 6 -56 13 -70 15 -14 3 -36 10 -50 14 -14 5 -38 13 -55 17 -33 8
-34 8 -55 16 -8 4 -53 19 -100 34 -47 16 -86 32 -88 36 -2 5 -9 8 -17 8 -34 0
-319 141 -449 223 -76 48 -219 146 -257 178 -26 22 -50 39 -53 39 -4 0 -17 10
-29 23 -12 12 -53 49 -92 82 -84 72 -167 155 -257 255 -98 110 -105 119 -160
193 -28 37 -51 67 -52 66 0 0 -19 -14 -41 -30z"/>
</g>
</svg>
